<svg xmlns="http://www.w3.org/2000/svg" width="100.376" height="100.46" viewBox="0 0 100.376 100.46">
  <g id="Group_47" data-name="Group 47" transform="translate(-756.28 -1965.878)">
    <ellipse id="Ellipse_6" data-name="Ellipse 6" cx="43.902" cy="43.939" rx="43.902" ry="43.939" transform="translate(762.721 1971.862)" fill="#fff"/>
    <g id="Group_46" data-name="Group 46">
      <path id="Path_44" data-name="Path 44" d="M802.227,1965.878h8.562c.765.111,1.529.234,2.295.331a47.906,47.906,0,0,1,11.579,2.938,50.375,50.375,0,0,1,10.64,5.7,51.591,51.591,0,0,1,11.284,10.854,50.061,50.061,0,0,1,9.513,22.4c.181,1.229.37,2.457.556,3.686v8.446c-.033.2-.077.4-.1.6a51.09,51.09,0,0,1-3.127,13.294,50.009,50.009,0,0,1-7.315,12.87,51.415,51.415,0,0,1-10.422,9.995,49.743,49.743,0,0,1-15.846,7.569,50.7,50.7,0,0,1-19.925,1.36A47.2,47.2,0,0,1,788.4,2063a49.736,49.736,0,0,1-12.943-7.4,50.4,50.4,0,0,1-16.39-22.9,47.026,47.026,0,0,1-2.595-11.921,50.318,50.318,0,0,1,5.705-28.434,46.782,46.782,0,0,1,4.862-7.4,51.512,51.512,0,0,1,11.881-10.917,49.314,49.314,0,0,1,9.374-4.846,46.3,46.3,0,0,1,10.187-2.744C799.733,1966.261,800.98,1966.066,802.227,1965.878Zm3.425,74.627v-.009q10.271,0,20.542,0c1.675,0,2.335-.694,2.169-2.345a21.384,21.384,0,0,0-1.779-6.708c-.311-.686-.366-.724-.895-.2q-2.469,2.461-4.933,4.928a5.393,5.393,0,0,1-2.538,1.52,6.175,6.175,0,0,1-5.9-1.877c-1.6-1.51-3.082-3.14-4.675-4.655-1.712-1.627-2.772-4.808-1.132-7.355a5.6,5.6,0,0,1,7.635-2.153,7.492,7.492,0,0,1,2.241,1.77c.369.422.644.39.975-.02.23-.284.5-.536.755-.8.884-.919.877-.906-.245-1.536a28,28,0,0,0-6.188-2.584c-.147-.041-.367-.035-.371-.248,0-.158.181-.2.3-.269.372-.21.754-.4,1.118-.631a13.66,13.66,0,0,0,6.12-15.518,13.327,13.327,0,0,0-8.238-9.15,12.943,12.943,0,0,0-9.437-.265,13.406,13.406,0,0,0-9.254,10.822,13.08,13.08,0,0,0,1.82,9.51,13.94,13.94,0,0,0,5.755,5.23c.158.079.393.134.383.347-.01.23-.256.224-.425.27a21.626,21.626,0,0,0-4.115,1.679,22.77,22.77,0,0,0-8.378,7.336A22.5,22.5,0,0,0,783,2038.066a1.926,1.926,0,0,0,2.112,2.438Q795.38,2040.507,805.652,2040.505Zm10.869-4.986a2.631,2.631,0,0,0,2.551-1.145,4.185,4.185,0,0,1,.381-.4q4.324-4.325,8.653-8.642a6.678,6.678,0,0,0,1.234-1.656c.787-1.5.424-3.577-.865-4.353-1.819-1.094-3.316-1.1-4.941.47-2.009,1.938-3.957,3.939-5.928,5.916-1.333,1.338-.962,1.147-2.136-.012a9.013,9.013,0,0,0-2.716-2.23,3.536,3.536,0,0,0-4.073.846,3.7,3.7,0,0,0,.009,4.594c1.649,1.832,3.363,3.6,5.026,5.424A3.272,3.272,0,0,0,816.521,2035.519Z" fill="#a1a1a1"/>
    </g>
  </g>
</svg>
